<svg width="25" height="25" viewBox="0 0 25 25" fill="none" xmlns="http://www.w3.org/2000/svg">
<path d="M22.0983 18.8729H9.02811L8.65942 17.0425H20.476C21.3994 17.0376 22.2878 16.6908 22.9673 16.0699C23.6468 15.449 24.0686 14.5987 24.15 13.6854L24.8598 5.22046C24.8703 5.09435 24.8545 4.96743 24.8131 4.84772C24.7718 4.728 24.7059 4.6181 24.6197 4.52496C24.5334 4.43181 24.4286 4.35744 24.3119 4.30655C24.1952 4.25565 24.0692 4.22934 23.9417 4.22927H6.07857L5.48866 1.3042C5.44691 1.0968 5.33411 0.910161 5.16943 0.776012C5.00475 0.641863 4.79837 0.568487 4.58536 0.568359H1.82017C1.57571 0.568359 1.34126 0.664785 1.16841 0.836423C0.995548 1.00806 0.898438 1.24085 0.898438 1.48359C0.898438 1.72632 0.995548 1.95911 1.16841 2.13075C1.34126 2.30239 1.57571 2.39881 1.82017 2.39881H3.82954L7.19202 19.0916C6.73198 19.2855 6.33345 19.5995 6.03881 20.0003C5.74417 20.4011 5.56442 20.8738 5.51869 21.3679C5.47297 21.862 5.56296 22.3593 5.77911 22.8067C5.99525 23.2541 6.32947 23.635 6.74622 23.9088C7.16298 24.1827 7.64669 24.3393 8.14592 24.3619C8.64515 24.3846 9.14123 24.2725 9.58143 24.0376C10.0216 23.8027 10.3895 23.4537 10.6459 23.0277C10.9022 22.6018 11.0376 22.1148 11.0375 21.6186C11.0344 21.3061 10.9771 20.9965 10.8679 20.7034H19.5027C19.3935 20.9965 19.3361 21.3061 19.3331 21.6186C19.3331 22.1616 19.4952 22.6925 19.7991 23.144C20.1029 23.5955 20.5348 23.9475 21.0401 24.1553C21.5453 24.3631 22.1013 24.4175 22.6377 24.3115C23.1741 24.2056 23.6668 23.9441 24.0535 23.5601C24.4403 23.1761 24.7036 22.6869 24.8103 22.1542C24.917 21.6216 24.8623 21.0696 24.653 20.5679C24.4437 20.0662 24.0893 19.6373 23.6345 19.3356C23.1798 19.0339 22.6452 18.8729 22.0983 18.8729ZM20.476 15.212H8.29072L7.18464 9.72063H22.6329L22.313 13.5335C22.2724 13.9902 22.0615 14.4154 21.7218 14.7258C21.382 15.0363 20.9377 15.2097 20.476 15.212ZM22.9398 6.05972L22.7859 7.89018H6.81595L6.44726 6.05972H22.9398ZM9.19402 21.6186C9.19402 21.7996 9.13996 21.9766 9.03868 22.1271C8.9374 22.2776 8.79344 22.3949 8.62502 22.4642C8.45659 22.5334 8.27127 22.5515 8.09247 22.5162C7.91367 22.4809 7.74943 22.3938 7.62053 22.2658C7.49162 22.1378 7.40383 21.9747 7.36827 21.7971C7.3327 21.6196 7.35096 21.4356 7.42072 21.2683C7.49048 21.1011 7.60862 20.9582 7.7602 20.8576C7.91178 20.757 8.08999 20.7034 8.27229 20.7034C8.51667 20.7036 8.75098 20.8001 8.92378 20.9717C9.09659 21.1433 9.19378 21.3759 9.19402 21.6186ZM22.0983 22.5338C21.916 22.5338 21.7377 22.4801 21.5862 22.3796C21.4346 22.279 21.3165 22.1361 21.2467 21.9688C21.1769 21.8016 21.1587 21.6176 21.1942 21.44C21.2298 21.2625 21.3176 21.0994 21.4465 20.9714C21.5754 20.8434 21.7396 20.7563 21.9184 20.7209C22.0972 20.6856 22.2826 20.7038 22.451 20.773C22.6194 20.8423 22.7634 20.9596 22.8646 21.1101C22.9659 21.2606 23.02 21.4376 23.02 21.6186C23.0197 21.8612 22.9226 22.0939 22.7498 22.2655C22.5769 22.4371 22.3426 22.5336 22.0983 22.5338Z" fill="#1A1A18"/>
</svg>
