<svg width="25" height="24" viewBox="0 0 25 24" fill="none" xmlns="http://www.w3.org/2000/svg">
<g clip-path="url(#clip0_1_1717)">
<path d="M21.4027 15.4937C20.0976 14.1886 18.5441 13.2224 16.8492 12.6375C18.6645 11.3872 19.8571 9.29473 19.8571 6.92865C19.8571 3.10874 16.7494 0.000976562 12.9296 0.000976562C9.10972 0.000976562 6.00201 3.10874 6.00201 6.92865C6.00201 9.29473 7.19463 11.3872 9.00997 12.6375C7.31506 13.2224 5.76161 14.1886 4.45647 15.4937C2.19322 17.757 0.946777 20.7662 0.946777 23.967H2.81909C2.81909 18.3919 7.35462 13.8563 12.9296 13.8563C18.5045 13.8563 23.04 18.3919 23.04 23.967H24.9123C24.9123 20.7662 23.6659 17.757 21.4027 15.4937ZM12.9296 11.984C10.1421 11.984 7.87432 9.7162 7.87432 6.92865C7.87432 4.1411 10.1421 1.87332 12.9296 1.87332C15.717 1.87332 17.9848 4.1411 17.9848 6.92865C17.9848 9.7162 15.717 11.984 12.9296 11.984Z" fill="#1A1A18"/>
</g>
<defs>
<clipPath id="clip0_1_1717">
<rect width="23.9656" height="23.966" fill="white" transform="translate(0.94873)"/>
</clipPath>
</defs>
</svg>
